<svg width="44" height="44" viewBox="0 0 44 44" fill="none" xmlns="http://www.w3.org/2000/svg">
<path d="M32.7692 2H11.2308C8.78262 2 6.43473 2.97252 4.70363 4.70363C2.97252 6.43473 2 8.78262 2 11.2308V32.7692C2 35.2174 2.97252 37.5653 4.70363 39.2964C6.43473 41.0275 8.78262 42 11.2308 42H32.7692C35.2174 42 37.5653 41.0275 39.2964 39.2964C41.0275 37.5653 42 35.2174 42 32.7692V11.2308C42 8.78262 41.0275 6.43473 39.2964 4.70363C37.5653 2.97252 35.2174 2 32.7692 2Z" fill="#0077B6"/>
<path d="M32.7692 2H11.2308C8.78262 2 6.43473 2.97252 4.70363 4.70363C2.97252 6.43473 2 8.78262 2 11.2308V32.7692C2 35.2174 2.97252 37.5653 4.70363 39.2964C6.43473 41.0275 8.78262 42 11.2308 42H32.7692C35.2174 42 37.5653 41.0275 39.2964 39.2964C41.0275 37.5653 42 35.2174 42 32.7692V11.2308C42 8.78262 41.0275 6.43473 39.2964 4.70363C37.5653 2.97252 35.2174 2 32.7692 2Z" stroke="#37392E" stroke-width="2.5" stroke-linecap="round" stroke-linejoin="round"/>
<path d="M22 12V32" stroke="#37392E" stroke-width="2.5" stroke-linecap="round" stroke-linejoin="round"/>
<path d="M12 21.9385H32" stroke="#37392E" stroke-width="2.5" stroke-linecap="round" stroke-linejoin="round"/>
</svg>
