<svg width="48" height="42" viewBox="0 0 48 42" fill="none" xmlns="http://www.w3.org/2000/svg">
<path d="M24 39.7511C24 38.9982 24 31.4898 24 27.8297" stroke="#646464" stroke-width="2.5" stroke-linecap="round"/>
<path fill-rule="evenodd" clip-rule="evenodd" d="M7.64111 16.7092C8.33147 16.7092 8.89111 17.2689 8.89111 17.9592V39.508H8.92841H8.99217H9.05613H9.12031H9.1847H9.2493H9.31411H9.37912H9.44434H9.50976H9.57539H9.64121H9.70724H9.77346H9.83989H9.90651H9.97332H10.0403H10.1075H10.1749H10.2425H10.3103H10.3782H10.4464H10.5147H10.5832H10.6519H10.7208H10.7898H10.859H10.9285H10.998H11.0678H11.1377H11.2078H11.2781H11.3485H11.4191H11.4899H11.5608H11.6319H11.7032H11.7746H11.8462H11.918H11.9899H12.0619H12.1341H12.2065H12.279H12.3517H12.4245H12.4975H12.5706H12.6438H12.7172H12.7908H12.8645H12.9383H13.0122H13.0863H13.1606H13.235H13.3095H13.3841H13.4589H13.5338H13.6088H13.684H13.7592H13.8346H13.9102H13.9858H14.0616H14.1375H14.2135H14.2896H14.3659H14.4422H14.5187H14.5953H14.672H14.7488H14.8257H14.9027H14.9798H15.057H15.1344H15.2118H15.2893H15.367H15.4447H15.5225H15.6004H15.6784H15.7565H15.8347H15.913H15.9914H16.0698H16.1484H16.227H16.3057H16.3845H16.4634H16.5423H16.6213H16.7004H16.7796H16.8589H16.9382H17.0176H17.0971H17.1766H17.2562H17.3359H17.4156H17.4954H17.5753H17.6552H17.7352H17.8152H17.8953H17.9755H18.0557H18.1359H18.2162H18.2966H18.377H18.4575H18.538H18.6185H18.6991H18.7797H18.8604H18.9411H19.0219H19.1027H19.1835H19.2644H19.3453H19.4262H19.5072H19.5882H19.6692H19.7502H19.8313H19.9124H19.9935H20.0747H20.1558H20.237H20.3182H20.3994H20.4807H20.5619H20.6432H20.7245H20.8057H20.887H20.9683H21.0496H21.1309H21.2123H21.2936H21.3749H21.4562H21.5375H21.6188H21.7001H21.7814H21.8627H21.944H22.0253H22.1066H22.1878H22.2691H22.3503H22.4315H22.5127H22.5939H22.675H22.7562H22.8373H22.9184H22.9994H23.0805H23.1615H23.2425H23.3234H23.4043H23.4852H23.5661H23.6469H23.7277H23.8084H23.8891H23.9698H24.0504H24.131H24.2115H24.292H24.3724H24.4528H24.5332H24.6135H24.6937H24.7739H24.854H24.9341H25.0141H25.0941H25.174H25.2538H25.3336H25.4133H25.4929H25.5725H25.652H25.7315H25.8108H25.8901H25.9694H26.0485H26.1276H26.2066H26.2855H26.3644H26.4431H26.5218H26.6004H26.6789H26.7573H26.8357H26.9139H26.9921H27.0701H27.1481H27.226H27.3038H27.3815H27.4591H27.5365H27.6139H27.6912H27.7684H27.8455H27.9225H27.9993H28.0761H28.1527H28.2293H28.3057H28.382H28.4582H28.5343H28.6103H28.6861H28.7619H28.8375H28.913H28.9883H29.0635H29.1387H29.2136H29.2885H29.3632H29.4378H29.5123H29.5866H29.6608H29.7348H29.8087H29.8825H29.9561H30.0296H30.103H30.1762H30.2492H30.3221H30.3949H30.4675H30.54H30.6123H30.6844H30.7564H30.8283H30.9H30.9715H31.0429H31.1141H31.1851H31.256H31.3267H31.3972H31.4676H31.5378H31.6079H31.6777H31.7474H31.8169H31.8863H31.9554H32.0244H32.0932H32.1618H32.2303H32.2985H32.3666H32.4345H32.5022H32.5697H32.637H32.7042H32.7711H32.8378H32.9044H32.9707H33.0369H33.1028H33.1686H33.2341H33.2995H33.3646H33.4296H33.4943H33.5588H33.6231H33.6872H33.7511H33.8148H33.8783H33.9415H34.0045H34.0673H34.1299H34.1923H34.2544H34.3163H34.378H34.4395H34.5007H34.5618H34.6225H34.6831H34.7434H34.8035H34.8633H34.9229H34.9823H35.0414H35.1003H35.159H35.2174H35.2755H35.3334H35.3911H35.4485H35.5057H35.5626H35.6193H35.6757H35.7318H35.7877H35.8434H35.8987H35.9538H36.0087H36.0633H36.1176H36.1717H36.2255H36.279H36.3323H36.3853H36.438H36.4904H36.5426H36.5945H36.6461H36.6974H36.7485H36.7993H36.8498H36.9H36.9499H36.9995H37.0489H37.0979H37.1467H37.1952H37.2434H37.2913H37.3389H37.3862H37.4332H37.4799H37.5263H37.5724H37.6181H37.6636H37.7088H37.7537H37.7983H37.8425H37.8865H37.9301H37.9734H38.0164H38.0591H38.1015H38.1435H38.1853H38.2267H38.2678H38.3085H38.349H38.3891H38.4289H38.4683H38.5075H38.5462H38.5847H38.6228H38.6606H38.6981H38.7352H38.7719H38.8084H38.8445H38.8802H38.9156H38.9507H38.9854H39.0197H39.0537H39.0874H39.1091V17.9592C39.1091 17.2689 39.6688 16.7092 40.3591 16.7092C41.0495 16.7092 41.6091 17.2689 41.6091 17.9592V40.7582C41.6091 41.4485 41.0495 42.0082 40.3591 42.0082C40.3527 42.0082 40.3464 42.0081 40.34 42.008H40.334H40.3209H40.3073H40.2933H40.2788H40.264H40.2487H40.2331H40.217H40.2005H40.1836H40.1663H40.1486H40.1305H40.1119H40.093H40.0737H40.0539H40.0338H40.0133H39.9923H39.971H39.9493H39.9272H39.9047H39.8818H39.8585H39.8348H39.8107H39.7863H39.7615H39.7363H39.7107H39.6847H39.6583H39.6316H39.6045H39.577H39.5492H39.5209H39.4923H39.4634H39.434H39.4043H39.3743H39.3438H39.313H39.2819H39.2504H39.2185H39.1862H39.1536H39.1207H39.0874H39.0537H39.0197H38.9854H38.9507H38.9156H38.8802H38.8445H38.8084H38.7719H38.7352H38.6981H38.6606H38.6228H38.5847H38.5462H38.5075H38.4683H38.4289H38.3891H38.349H38.3085H38.2678H38.2267H38.1853H38.1435H38.1015H38.0591H38.0164H37.9734H37.9301H37.8865H37.8425H37.7983H37.7537H37.7088H37.6636H37.6181H37.5724H37.5263H37.4799H37.4332H37.3862H37.3389H37.2913H37.2434H37.1952H37.1467H37.0979H37.0489H36.9995H36.9499H36.9H36.8498H36.7993H36.7485H36.6974H36.6461H36.5945H36.5426H36.4904H36.438H36.3853H36.3323H36.279H36.2255H36.1717H36.1176H36.0633H36.0087H35.9538H35.8987H35.8434H35.7877H35.7318H35.6757H35.6193H35.5626H35.5057H35.4485H35.3911H35.3334H35.2755H35.2174H35.159H35.1003H35.0414H34.9823H34.9229H34.8633H34.8035H34.7434H34.6831H34.6225H34.5618H34.5007H34.4395H34.378H34.3163H34.2544H34.1923H34.1299H34.0673H34.0045H33.9415H33.8783H33.8148H33.7511H33.6872H33.6231H33.5588H33.4943H33.4296H33.3646H33.2995H33.2341H33.1686H33.1028H33.0369H32.9707H32.9044H32.8378H32.7711H32.7042H32.637H32.5697H32.5022H32.4345H32.3666H32.2985H32.2303H32.1618H32.0932H32.0244H31.9554H31.8863H31.8169H31.7474H31.6777H31.6079H31.5378H31.4676H31.3972H31.3267H31.256H31.1851H31.1141H31.0429H30.9715H30.9H30.8283H30.7564H30.6844H30.6123H30.54H30.4675H30.3949H30.3221H30.2492H30.1762H30.103H30.0296H29.9561H29.8825H29.8087H29.7348H29.6608H29.5866H29.5123H29.4378H29.3632H29.2885H29.2136H29.1387H29.0635H28.9883H28.913H28.8375H28.7619H28.6861H28.6103H28.5343H28.4582H28.382H28.3057H28.2293H28.1527H28.0761H27.9993H27.9225H27.8455H27.7684H27.6912H27.6139H27.5365H27.4591H27.3815H27.3038H27.226H27.1481H27.0701H26.9921H26.9139H26.8357H26.7573H26.6789H26.6004H26.5218H26.4431H26.3644H26.2855H26.2066H26.1276H26.0485H25.9694H25.8901H25.8108H25.7315H25.652H25.5725H25.4929H25.4133H25.3336H25.2538H25.174H25.0941H25.0141H24.9341H24.854H24.7739H24.6937H24.6135H24.5332H24.4528H24.3724H24.292H24.2115H24.131H24.0504H23.9698H23.8891H23.8084H23.7277H23.6469H23.5661H23.4852H23.4043H23.3234H23.2425H23.1615H23.0805H22.9994H22.9184H22.8373H22.7562H22.675H22.5939H22.5127H22.4315H22.3503H22.2691H22.1878H22.1066H22.0253H21.944H21.8627H21.7814H21.7001H21.6188H21.5375H21.4562H21.3749H21.2936H21.2123H21.1309H21.0496H20.9683H20.887H20.8057H20.7245H20.6432H20.5619H20.4807H20.3994H20.3182H20.237H20.1558H20.0747H19.9935H19.9124H19.8313H19.7502H19.6692H19.5882H19.5072H19.4262H19.3453H19.2644H19.1835H19.1027H19.0219H18.9411H18.8604H18.7797H18.6991H18.6185H18.538H18.4575H18.377H18.2966H18.2162H18.1359H18.0557H17.9755H17.8953H17.8152H17.7352H17.6552H17.5753H17.4954H17.4156H17.3359H17.2562H17.1766H17.0971H17.0176H16.9382H16.8589H16.7796H16.7004H16.6213H16.5423H16.4634H16.3845H16.3057H16.227H16.1484H16.0698H15.9914H15.913H15.8347H15.7565H15.6784H15.6004H15.5225H15.4447H15.367H15.2893H15.2118H15.1344H15.057H14.9798H14.9027H14.8257H14.7488H14.672H14.5953H14.5187H14.4422H14.3659H14.2896H14.2135H14.1375H14.0616H13.9858H13.9102H13.8346H13.7592H13.684H13.6088H13.5338H13.4589H13.3841H13.3095H13.235H13.1606H13.0863H13.0122H12.9383H12.8645H12.7908H12.7172H12.6438H12.5706H12.4975H12.4245H12.3517H12.279H12.2065H12.1341H12.0619H11.9899H11.918H11.8462H11.7746H11.7032H11.6319H11.5608H11.4899H11.4191H11.3485H11.2781H11.2078H11.1377H11.0678H10.998H10.9285H10.859H10.7898H10.7208H10.6519H10.5832H10.5147H10.4464H10.3782H10.3103H10.2425H10.1749H10.1075H10.0403H9.97332H9.90651H9.83989H9.77346H9.70724H9.64121H9.57539H9.50976H9.44434H9.37912H9.31411H9.2493H9.1847H9.12031H9.05613H8.99217H8.92841H8.86487H8.80155H8.73844H8.67555H8.61289H8.55044H8.48821H8.42621H8.36443H8.30288H8.24156H8.18046H8.1196H8.05896H7.99856H7.93839H7.87846H7.81877H7.75931H7.70009H7.66022L7.64111 42.0082C6.95076 42.0082 6.39111 41.4485 6.39111 40.7582V40.758V17.9592C6.39111 17.2689 6.95076 16.7092 7.64111 16.7092Z" fill="#646464"/>
<path d="M46 22.5191L24.5641 2" stroke="#646464" stroke-width="2.5" stroke-linecap="round"/>
<path d="M2 22.5191L24.5641 2" stroke="#646464" stroke-width="2.5" stroke-linecap="round"/>
</svg>
