<svg width="48" height="42" viewBox="0 0 48 42" fill="none" xmlns="http://www.w3.org/2000/svg">
<rect x="7.51364" y="16.6573" width="33.3549" height="24.0967" fill="#0077B6"/>
<path d="M24.1911 1L40.8562 16.6573H7.52597L24.1911 1Z" fill="#0077B6"/>
<path d="M24 38.7828C24 38.0249 24 30.467 24 26.7828" stroke="#37392E" stroke-width="2.5" stroke-linecap="round"/>
<path fill-rule="evenodd" clip-rule="evenodd" d="M7.64099 15.5973C8.33135 15.5973 8.89099 16.1569 8.89099 16.8473V38.5464H8.92829H8.99204H9.05601H9.12019H9.18458H9.24918H9.31398H9.379H9.44422H9.50964H9.57526H9.64109H9.70712H9.77334H9.83977H9.90638H9.9732H10.0402H10.1074H10.1748H10.2424H10.3101H10.3781H10.4462H10.5146H10.5831H10.6518H10.7206H10.7897H10.8589H10.9283H10.9979H11.0677H11.1376H11.2077H11.278H11.3484H11.419H11.4898H11.5607H11.6318H11.7031H11.7745H11.8461H11.9178H11.9897H12.0618H12.134H12.2064H12.2789H12.3516H12.4244H12.4973H12.5704H12.6437H12.7171H12.7906H12.8643H12.9382H13.0121H13.0862H13.1605H13.2348H13.3093H13.384H13.4587H13.5337H13.6087H13.6838H13.7591H13.8345H13.9101H13.9857H14.0615H14.1374H14.2134H14.2895H14.3658H14.4421H14.5186H14.5952H14.6719H14.7487H14.8256H14.9026H14.9797H15.0569H15.1343H15.2117H15.2892H15.3668H15.4446H15.5224H15.6003H15.6783H15.7564H15.8346H15.9129H15.9912H16.0697H16.1482H16.2269H16.3056H16.3844H16.4632H16.5422H16.6212H16.7003H16.7795H16.8587H16.9381H17.0175H17.0969H17.1765H17.2561H17.3357H17.4155H17.4953H17.5751H17.6551H17.735H17.8151H17.8952H17.9753H18.0555H18.1358H18.2161H18.2965H18.3769H18.4573H18.5378H18.6184H18.699H18.7796H18.8603H18.941H19.0218H19.1026H19.1834H19.2643H19.3452H19.4261H19.5071H19.5881H19.6691H19.7501H19.8312H19.9123H19.9934H20.0746H20.1557H20.2369H20.3181H20.3993H20.4806H20.5618H20.6431H20.7243H20.8056H20.8869H20.9682H21.0495H21.1308H21.2121H21.2934H21.3748H21.4561H21.5374H21.6187H21.7H21.7813H21.8626H21.9439H22.0252H22.1064H22.1877H22.2689H22.3502H22.4314H22.5126H22.5938H22.6749H22.756H22.8372H22.9182H22.9993H23.0803H23.1614H23.2423H23.3233H23.4042H23.4851H23.566H23.6468H23.7275H23.8083H23.889H23.9697H24.0503H24.1309H24.2114H24.2919H24.3723H24.4527H24.5331H24.6133H24.6936H24.7738H24.8539H24.934H25.014H25.094H25.1739H25.2537H25.3335H25.4132H25.4928H25.5724H25.6519H25.7314H25.8107H25.89H25.9692H26.0484H26.1275H26.2065H26.2854H26.3642H26.443H26.5217H26.6003H26.6788H26.7572H26.8355H26.9138H26.9919H27.07H27.148H27.2259H27.3037H27.3813H27.4589H27.5364H27.6138H27.6911H27.7683H27.8454H27.9223H27.9992H28.076H28.1526H28.2292H28.3056H28.3819H28.4581H28.5342H28.6102H28.686H28.7617H28.8373H28.9128H28.9882H29.0634H29.1385H29.2135H29.2884H29.3631H29.4377H29.5121H29.5865H29.6606H29.7347H29.8086H29.8824H29.956H30.0295H30.1029H30.1761H30.2491H30.322H30.3948H30.4674H30.5399H30.6122H30.6843H30.7563H30.8282H30.8998H30.9714H31.0427H31.1139H31.185H31.2559H31.3266H31.3971H31.4675H31.5377H31.6077H31.6776H31.7473H31.8168H31.8861H31.9553H32.0243H32.0931H32.1617H32.2302H32.2984H32.3665H32.4344H32.5021H32.5696H32.6369H32.704H32.771H32.8377H32.9043H32.9706H33.0368H33.1027H33.1685H33.234H33.2994H33.3645H33.4294H33.4942H33.5587H33.623H33.6871H33.751H33.8147H33.8781H33.9414H34.0044H34.0672H34.1298H34.1922H34.2543H34.3162H34.3779H34.4394H34.5006H34.5616H34.6224H34.683H34.7433H34.8034H34.8632H34.9228H34.9822H35.0413H35.1002H35.1588H35.2172H35.2754H35.3333H35.391H35.4484H35.5056H35.5625H35.6191H35.6755H35.7317H35.7876H35.8432H35.8986H35.9537H36.0086H36.0632H36.1175H36.1716H36.2254H36.2789H36.3322H36.3851H36.4379H36.4903H36.5425H36.5944H36.646H36.6973H36.7484H36.7991H36.8496H36.8998H36.9498H36.9994H37.0488H37.0978H37.1466H37.1951H37.2432H37.2911H37.3387H37.386H37.433H37.4797H37.5261H37.5722H37.618H37.6635H37.7087H37.7536H37.7981H37.8424H37.8864H37.93H37.9733H38.0163H38.059H38.1014H38.1434H38.1852H38.2266H38.2677H38.3084H38.3489H38.389H38.4288H38.4682H38.5073H38.5461H38.5846H38.6227H38.6605H38.6979H38.7351H38.7718H38.8083H38.8443H38.8801H38.9155H38.9505H38.9853H39.0196H39.0536H39.0873H39.109V16.8473C39.109 16.1569 39.6686 15.5973 40.359 15.5973C41.0494 15.5973 41.609 16.1569 41.609 16.8473V39.7966C41.609 40.4869 41.0494 41.0466 40.359 41.0466C40.3526 41.0466 40.3462 41.0465 40.3398 41.0464H40.3339H40.3207H40.3071H40.2931H40.2787H40.2639H40.2486H40.233H40.2169H40.2004H40.1835H40.1662H40.1485H40.1303H40.1118H40.0929H40.0735H40.0538H40.0337H40.0131H39.9922H39.9709H39.9492H39.927H39.9045H39.8816H39.8584H39.8347H39.8106H39.7862H39.7613H39.7361H39.7105H39.6846H39.6582H39.6315H39.6044H39.5769H39.549H39.5208H39.4922H39.4632H39.4339H39.4042H39.3741H39.3437H39.3129H39.2818H39.2502H39.2184H39.1861H39.1535H39.1206H39.0873H39.0536H39.0196H38.9853H38.9505H38.9155H38.8801H38.8443H38.8083H38.7718H38.7351H38.6979H38.6605H38.6227H38.5846H38.5461H38.5073H38.4682H38.4288H38.389H38.3489H38.3084H38.2677H38.2266H38.1852H38.1434H38.1014H38.059H38.0163H37.9733H37.93H37.8864H37.8424H37.7981H37.7536H37.7087H37.6635H37.618H37.5722H37.5261H37.4797H37.433H37.386H37.3387H37.2911H37.2432H37.1951H37.1466H37.0978H37.0488H36.9994H36.9498H36.8998H36.8496H36.7991H36.7484H36.6973H36.646H36.5944H36.5425H36.4903H36.4379H36.3851H36.3322H36.2789H36.2254H36.1716H36.1175H36.0632H36.0086H35.9537H35.8986H35.8432H35.7876H35.7317H35.6755H35.6191H35.5625H35.5056H35.4484H35.391H35.3333H35.2754H35.2172H35.1588H35.1002H35.0413H34.9822H34.9228H34.8632H34.8034H34.7433H34.683H34.6224H34.5616H34.5006H34.4394H34.3779H34.3162H34.2543H34.1922H34.1298H34.0672H34.0044H33.9414H33.8781H33.8147H33.751H33.6871H33.623H33.5587H33.4942H33.4294H33.3645H33.2994H33.234H33.1685H33.1027H33.0368H32.9706H32.9043H32.8377H32.771H32.704H32.6369H32.5696H32.5021H32.4344H32.3665H32.2984H32.2302H32.1617H32.0931H32.0243H31.9553H31.8861H31.8168H31.7473H31.6776H31.6077H31.5377H31.4675H31.3971H31.3266H31.2559H31.185H31.1139H31.0427H30.9714H30.8998H30.8282H30.7563H30.6843H30.6122H30.5399H30.4674H30.3948H30.322H30.2491H30.1761H30.1029H30.0295H29.956H29.8824H29.8086H29.7347H29.6606H29.5865H29.5121H29.4377H29.3631H29.2884H29.2135H29.1385H29.0634H28.9882H28.9128H28.8373H28.7617H28.686H28.6102H28.5342H28.4581H28.3819H28.3056H28.2292H28.1526H28.076H27.9992H27.9223H27.8454H27.7683H27.6911H27.6138H27.5364H27.4589H27.3813H27.3037H27.2259H27.148H27.07H26.9919H26.9138H26.8355H26.7572H26.6788H26.6003H26.5217H26.443H26.3642H26.2854H26.2065H26.1275H26.0484H25.9692H25.89H25.8107H25.7314H25.6519H25.5724H25.4928H25.4132H25.3335H25.2537H25.1739H25.094H25.014H24.934H24.8539H24.7738H24.6936H24.6133H24.5331H24.4527H24.3723H24.2919H24.2114H24.1309H24.0503H23.9697H23.889H23.8083H23.7275H23.6468H23.566H23.4851H23.4042H23.3233H23.2423H23.1614H23.0803H22.9993H22.9182H22.8372H22.756H22.6749H22.5938H22.5126H22.4314H22.3502H22.2689H22.1877H22.1064H22.0252H21.9439H21.8626H21.7813H21.7H21.6187H21.5374H21.4561H21.3748H21.2934H21.2121H21.1308H21.0495H20.9682H20.8869H20.8056H20.7243H20.6431H20.5618H20.4806H20.3993H20.3181H20.2369H20.1557H20.0746H19.9934H19.9123H19.8312H19.7501H19.6691H19.5881H19.5071H19.4261H19.3452H19.2643H19.1834H19.1026H19.0218H18.941H18.8603H18.7796H18.699H18.6184H18.5378H18.4573H18.3769H18.2965H18.2161H18.1358H18.0555H17.9753H17.8952H17.8151H17.735H17.6551H17.5751H17.4953H17.4155H17.3357H17.2561H17.1765H17.0969H17.0175H16.9381H16.8587H16.7795H16.7003H16.6212H16.5422H16.4632H16.3844H16.3056H16.2269H16.1482H16.0697H15.9912H15.9129H15.8346H15.7564H15.6783H15.6003H15.5224H15.4446H15.3668H15.2892H15.2117H15.1343H15.0569H14.9797H14.9026H14.8256H14.7487H14.6719H14.5952H14.5186H14.4421H14.3658H14.2895H14.2134H14.1374H14.0615H13.9857H13.9101H13.8345H13.7591H13.6838H13.6087H13.5337H13.4587H13.384H13.3093H13.2348H13.1605H13.0862H13.0121H12.9382H12.8643H12.7906H12.7171H12.6437H12.5704H12.4973H12.4244H12.3516H12.2789H12.2064H12.134H12.0618H11.9897H11.9178H11.8461H11.7745H11.7031H11.6318H11.5607H11.4898H11.419H11.3484H11.278H11.2077H11.1376H11.0677H10.9979H10.9283H10.8589H10.7897H10.7206H10.6518H10.5831H10.5146H10.4462H10.3781H10.3101H10.2424H10.1748H10.1074H10.0402H9.9732H9.90638H9.83977H9.77334H9.70712H9.64109H9.57526H9.50964H9.44422H9.379H9.31398H9.24918H9.18458H9.12019H9.05601H8.99204H8.92829H8.86475H8.80143H8.73832H8.67543H8.61276H8.55032H8.48809H8.42609H8.36431H8.30276H8.24143H8.18034H8.11947H8.05884H7.99844H7.93827H7.87834H7.81865H7.75919H7.69997H7.66022L7.64099 41.0466C6.95064 41.0466 6.39099 40.4869 6.39099 39.7966V39.7964V16.8473C6.39099 16.1569 6.95064 15.5973 7.64099 15.5973Z" fill="#37392E"/>
<path d="M46 21.7828L26 2.78284" stroke="#37392E" stroke-width="2.5" stroke-linecap="round"/>
<path d="M2 21.7828L22 2.78279C23.6013 1.3793 24.4769 1.44692 26 2.78279" stroke="#37392E" stroke-width="2.5" stroke-linecap="round"/>
</svg>
