<svg width="45" height="47" viewBox="0 0 45 47" fill="none" xmlns="http://www.w3.org/2000/svg">
<path d="M5.76923 44.1292L15.3231 41.9231L28.6769 45L39.6154 42.4738C40.2931 42.3174 40.8978 41.9359 41.3308 41.3916C41.7639 40.8474 41.9998 40.1724 42 39.4769V8.86769C41.9998 8.40488 41.8953 7.94806 41.6941 7.53126C41.4929 7.11446 41.2003 6.74841 40.838 6.46038C40.4758 6.17234 40.0532 5.96974 39.6018 5.86766C39.1503 5.76557 38.6817 5.76664 38.2308 5.87077L28.6769 8.07692L15.3231 5L4.38462 7.52615C3.70693 7.68265 3.10225 8.06413 2.66919 8.60838C2.23614 9.15263 2.00025 9.82755 2 10.5231V41.1323C2.00017 41.5951 2.10474 42.0519 2.30592 42.4687C2.50711 42.8855 2.79972 43.2516 3.16199 43.5396C3.52425 43.8277 3.94682 44.0303 4.39824 44.1323C4.84965 44.2344 5.31828 44.2334 5.76923 44.1292Z" fill="#0077B6"/>
<path d="M15.3231 41.9231L5.76923 44.1292C5.31828 44.2334 4.84965 44.2344 4.39824 44.1323C3.94682 44.0303 3.52425 43.8277 3.16199 43.5396C2.79972 43.2516 2.50711 42.8855 2.30592 42.4687C2.10473 42.0519 2.00017 41.5951 2 41.1323V10.5231C2.00025 9.82755 2.23614 9.15263 2.66919 8.60838C3.10225 8.06412 3.70693 7.68265 4.38462 7.52615L15.3231 5V41.9231Z" stroke="#37392E" stroke-width="2.5" stroke-linecap="round" stroke-linejoin="round"/>
<path d="M15.323 41.9231L28.6768 45V8.07692L15.323 5V41.9231Z" stroke="#37392E" stroke-width="2.5" stroke-linecap="round" stroke-linejoin="round"/>
<path d="M42.0001 39.4769C41.9998 40.1724 41.7639 40.8474 41.3309 41.3916C40.8978 41.9359 40.2932 42.3174 39.6155 42.4738L28.677 45V8.07692L38.2308 5.87077C38.6818 5.76663 39.1504 5.76557 39.6018 5.86765C40.0533 5.96974 40.4758 6.17234 40.8381 6.46038C41.2004 6.74841 41.493 7.11446 41.6942 7.53126C41.8953 7.94806 41.9999 8.40487 42.0001 8.86769V39.4769Z" stroke="#37392E" stroke-width="2.5" stroke-linecap="round" stroke-linejoin="round"/>
</svg>
