<svg width="44" height="44" viewBox="0 0 44 44" fill="none" xmlns="http://www.w3.org/2000/svg">
<path d="M22.0008 25.0769C23.011 25.0769 24.0112 24.8779 24.9445 24.4913C25.8777 24.1048 26.7257 23.5381 27.4399 22.8238C28.1542 22.1095 28.7208 21.2616 29.1073 20.3283C29.4939 19.395 29.6929 18.3947 29.6929 17.3846C29.6929 16.3744 29.4939 15.3741 29.1073 14.4408C28.7208 13.5076 28.1542 12.6596 27.4399 11.9453C26.7257 11.231 25.8777 10.6644 24.9445 10.2778C24.0112 9.89123 23.011 9.69226 22.0008 9.69226C19.9608 9.69226 18.0043 10.5027 16.5618 11.9453C15.1192 13.3879 14.3088 15.3444 14.3088 17.3846C14.3088 19.4247 15.1192 21.3813 16.5618 22.8238C18.0043 24.2664 19.9608 25.0769 22.0008 25.0769Z" stroke="#646464" stroke-width="2.5" stroke-linecap="round" stroke-linejoin="round"/>
<path d="M8.86279 37.0769C10.2358 34.8232 12.1655 32.9605 14.4663 31.6679C16.7671 30.3754 19.3618 29.6965 22.0007 29.6965C24.6397 29.6965 27.2344 30.3754 29.5352 31.6679C31.836 32.9605 33.7657 34.8232 35.1387 37.0769" stroke="#646464" stroke-width="2.5" stroke-linecap="round" stroke-linejoin="round"/>
<path d="M22.0009 42C27.3051 42 32.392 39.8928 36.1425 36.1421C39.8931 32.3914 42.0002 27.3043 42.0002 22C42.0002 16.6957 39.8931 11.6086 36.1425 7.85786C32.392 4.10714 27.3051 2 22.0009 2C16.6968 2 11.6099 4.10714 7.85935 7.85786C4.10876 11.6086 2.00171 16.6957 2.00171 22C2.00171 27.3043 4.10876 32.3914 7.85935 36.1421C11.6099 39.8928 16.6968 42 22.0009 42Z" stroke="#646464" stroke-width="2.5" stroke-linecap="round" stroke-linejoin="round"/>
</svg>
