<svg width="44" height="44" viewBox="0 0 44 44" fill="none" xmlns="http://www.w3.org/2000/svg">
<path fill-rule="evenodd" clip-rule="evenodd" d="M8.86 37.0771C10.2321 34.8214 12.162 32.9571 14.4637 31.6638C16.7654 30.3704 19.3613 29.6915 22.0015 29.6925C27.5677 29.6925 32.4415 32.6463 35.1431 37.0771C38.2125 34.401 40.3919 30.8518 41.3899 26.9039C42.388 22.956 42.1572 18.7974 40.7283 14.9842C39.2995 11.171 36.7407 7.88477 33.394 5.56488C30.0472 3.24498 26.0721 2.00195 22 2.00195C17.9278 2.00195 13.9527 3.24498 10.606 5.56488C7.25932 7.88477 4.70051 11.171 3.27165 14.9842C1.84279 18.7974 1.61196 22.956 2.61004 26.9039C3.60811 30.8518 5.7906 34.401 8.86 37.0771ZM22.0015 25.0771C23.0117 25.0771 24.012 24.8781 24.9452 24.4915C25.8785 24.105 26.7265 23.5383 27.4408 22.824C28.1551 22.1098 28.7217 21.2618 29.1083 20.3285C29.4949 19.3952 29.6938 18.3949 29.6938 17.3848C29.6938 16.3746 29.4949 15.3743 29.1083 14.441C28.7217 13.5078 28.1551 12.6598 27.4408 11.9455C26.7265 11.2312 25.8785 10.6646 24.9452 10.278C24.012 9.89143 23.0117 9.69246 22.0015 9.69246C19.9614 9.69246 18.0048 10.5029 16.5622 11.9455C15.1197 13.3881 14.3092 15.3446 14.3092 17.3848C14.3092 19.4249 15.1197 21.3815 16.5622 22.824C18.0048 24.2666 19.9614 25.0771 22.0015 25.0771Z" fill="#0077B6"/>
<path d="M22.0016 25.0769C23.0118 25.0769 24.0121 24.8779 24.9453 24.4913C25.8786 24.1048 26.7266 23.5381 27.4409 22.8238C28.1552 22.1095 28.7218 21.2616 29.1084 20.3283C29.495 19.395 29.6939 18.3947 29.6939 17.3846C29.6939 16.3744 29.495 15.3741 29.1084 14.4408C28.7218 13.5076 28.1552 12.6596 27.4409 11.9453C26.7266 11.231 25.8786 10.6644 24.9453 10.2778C24.0121 9.89123 23.0118 9.69226 22.0016 9.69226C19.9615 9.69226 18.0049 10.5027 16.5623 11.9453C15.1198 13.3879 14.3093 15.3444 14.3093 17.3846C14.3093 19.4247 15.1198 21.3813 16.5623 22.8238C18.0049 24.2664 19.9615 25.0769 22.0016 25.0769Z" stroke="#37392E" stroke-width="2.5" stroke-linecap="round" stroke-linejoin="round"/>
<path d="M8.86304 37.0769C10.2361 34.8232 12.1658 32.9605 14.4667 31.6679C16.7677 30.3754 19.3624 29.6965 22.0015 29.6965C24.6406 29.6965 27.2353 30.3754 29.5362 31.6679C31.8372 32.9605 33.7669 34.8232 35.1399 37.0769" stroke="#37392E" stroke-width="2.5" stroke-linecap="round" stroke-linejoin="round"/>
<path d="M22.0017 42C27.306 42 32.3931 39.8928 36.1438 36.1421C39.8946 32.3914 42.0017 27.3043 42.0017 22C42.0017 16.6957 39.8946 11.6086 36.1438 7.85786C32.3931 4.10714 27.306 2 22.0017 2C16.6974 2 11.6103 4.10714 7.85957 7.85786C4.10884 11.6086 2.00171 16.6957 2.00171 22C2.00171 27.3043 4.10884 32.3914 7.85957 36.1421C11.6103 39.8928 16.6974 42 22.0017 42Z" stroke="#37392E" stroke-width="2.5" stroke-linecap="round" stroke-linejoin="round"/>
</svg>
