<svg width="29" height="31" viewBox="0 0 29 31" fill="none" xmlns="http://www.w3.org/2000/svg">
<path d="M10.7188 5.63462L11.6119 3.32923C11.7625 2.9389 12.0275 2.60316 12.3721 2.36598C12.7168 2.1288 13.125 2.00124 13.5434 2H15.2465C15.6649 2.00124 16.0731 2.1288 16.4178 2.36598C16.7624 2.60316 17.0274 2.9389 17.178 3.32923L18.0711 5.63462L21.1034 7.37923L23.5542 7.00539C23.9623 6.94999 24.3776 7.01717 24.7474 7.19838C25.1172 7.37959 25.4248 7.66665 25.6311 8.02308L26.4619 9.47692C26.6748 9.83903 26.7728 10.2572 26.7432 10.6762C26.7135 11.0952 26.5575 11.4953 26.2957 11.8238L24.7796 13.7554V17.2446L26.3373 19.1762C26.599 19.5047 26.755 19.9048 26.7847 20.3238C26.8144 20.7428 26.7163 21.161 26.5034 21.5231L25.6726 22.9769C25.4664 23.3334 25.1588 23.6204 24.7889 23.8016C24.4191 23.9828 24.0038 24.05 23.5957 23.9946L21.1449 23.6208L18.1126 25.3654L17.2196 27.6708C17.0689 28.0611 16.804 28.3968 16.4593 28.634C16.1147 28.8712 15.7064 28.9988 15.288 29H13.5434C13.125 28.9988 12.7168 28.8712 12.3721 28.634C12.0275 28.3968 11.7625 28.0611 11.6119 27.6708L10.7188 25.3654L7.68649 23.6208L5.23572 23.9946C4.82764 24.05 4.4123 23.9828 4.04249 23.8016C3.67267 23.6204 3.36508 23.3334 3.15879 22.9769L2.32802 21.5231C2.11514 21.161 2.01706 20.7428 2.04673 20.3238C2.07639 19.9048 2.2324 19.5047 2.49418 19.1762L4.01033 17.2446V13.7554L2.45264 11.8238C2.19086 11.4953 2.03485 11.0952 2.00519 10.6762C1.97552 10.2572 2.0736 9.83903 2.28649 9.47692L3.11725 8.02308C3.32354 7.66665 3.63114 7.37959 4.00095 7.19838C4.37076 7.01717 4.7861 6.94999 5.19418 7.00539L7.64495 7.37923L10.7188 5.63462ZM10.2411 15.5C10.2411 16.6017 10.6787 17.6582 11.4577 18.4372C12.2367 19.2162 13.2933 19.6538 14.3949 19.6538C15.4966 19.6538 16.5532 19.2162 17.3322 18.4372C18.1112 17.6582 18.5488 16.6017 18.5488 15.5C18.5488 14.3983 18.1112 13.3418 17.3322 12.5628C16.5532 11.7838 15.4966 11.3462 14.3949 11.3462C13.2933 11.3462 12.2367 11.7838 11.4577 12.5628C10.6787 13.3418 10.2411 14.3983 10.2411 15.5Z" stroke="#37392E" stroke-width="2.5" stroke-linecap="round" stroke-linejoin="round"/>
</svg>
